<svg width="191" height="85" viewBox="0 0 191 85" fill="none" xmlns="http://www.w3.org/2000/svg">
<g id="Logo">
<rect width="191" height="85" fill="#2A2A2A"/>
<g id="Vector">
<path d="M118.667 55.7684V31.5891H114.717V28.2919H126.343V31.5891H122.393V55.7684H118.667Z" fill="#D13223"/>
<path d="M128.133 55.7684V28.2919H131.842V55.7684H128.133Z" fill="#D13223"/>
<path d="M135.042 55.7684V28.2919H141.259L143.216 39.1108L143.989 52.4197H144.762L145.5 39.1108L147.492 28.2919H153.709V55.7684H149.983V47.5427L150.687 31.5891H149.828L148.197 47.7659L146.514 55.7169H142.22L140.572 47.7659L138.906 31.5891H138.099L138.751 47.5427V55.7684H135.042Z" fill="#D13223"/>
<path d="M156.877 55.7684V28.2919H166.683V31.5891H160.586V40.2099H166.339V43.507H160.586V52.4713H166.683V55.7684H156.877Z" fill="#D13223"/>
<path d="M30.959 56.0604C28.9097 56.0604 27.4443 55.6196 26.5627 54.7381C25.6812 53.8451 25.2003 52.3797 25.1202 50.3418C25.1088 49.8037 25.0973 49.2828 25.0859 48.7791C25.0859 48.2639 25.0916 47.7487 25.103 47.2335C25.1259 46.7184 25.1603 46.1917 25.2061 45.6536H28.7093C28.6635 46.5695 28.6349 47.4854 28.6235 48.4013C28.6235 49.3172 28.6521 50.1815 28.7093 50.9944C28.7551 51.6699 28.9555 52.1736 29.3104 52.5056C29.6653 52.8262 30.2091 52.9864 30.9418 52.9864C31.6631 52.9864 32.184 52.8262 32.5045 52.5056C32.8251 52.1736 33.0197 51.6699 33.0884 50.9944C33.1227 50.4792 33.1456 49.9984 33.1571 49.5519C33.1685 49.1054 33.1685 48.6532 33.1571 48.1952C33.1456 47.7373 33.1227 47.2335 33.0884 46.684C33.0426 46.0086 32.9052 45.4304 32.6762 44.9496C32.4473 44.4687 32.0294 44.1482 31.4226 43.9879L29.1215 43.404C28.0911 43.1407 27.284 42.7572 26.7001 42.2534C26.1162 41.7382 25.6984 41.0857 25.4465 40.2957C25.1946 39.5058 25.0515 38.5613 25.0172 37.4622C25.0057 36.844 25 36.2143 25 35.5732C25.0114 34.9321 25.0229 34.2967 25.0343 33.667C25.0801 32.3161 25.2977 31.2285 25.6869 30.4042C26.0876 29.5685 26.7116 28.9617 27.5587 28.5839C28.4174 28.1946 29.5451 28 30.9418 28C32.9224 28 34.3535 28.4408 35.235 29.3223C36.128 30.2038 36.6145 31.6578 36.6947 33.6842C36.7176 34.2452 36.7233 34.9378 36.7119 35.7621C36.7004 36.575 36.6775 37.3878 36.6432 38.2007H33.0712C33.1056 37.342 33.1227 36.4834 33.1227 35.6247C33.1342 34.7546 33.1227 33.8903 33.0884 33.0316C33.0769 32.3676 32.888 31.8753 32.5217 31.5548C32.1553 31.2228 31.623 31.0568 30.9246 31.0568C30.1919 31.0568 29.6596 31.2228 29.3275 31.5548C28.9955 31.8753 28.8009 32.3676 28.7437 33.0316C28.6864 33.7643 28.6578 34.5028 28.6578 35.2469C28.6693 35.9911 28.6979 36.7295 28.7437 37.4622C28.7895 38.1949 28.9326 38.7845 29.173 39.231C29.4134 39.6775 29.8485 39.9809 30.4781 40.1412L32.556 40.6392C33.6436 40.8911 34.4908 41.286 35.0976 41.8241C35.7044 42.3507 36.1337 43.0205 36.3856 43.8333C36.6374 44.6347 36.7805 45.585 36.8149 46.684C36.8378 47.1649 36.8492 47.5999 36.8492 47.9892C36.8492 48.3784 36.8435 48.7619 36.8321 49.1397C36.8206 49.5061 36.8092 49.9068 36.7977 50.3418C36.7176 52.3797 36.231 53.8451 35.338 54.7381C34.4565 55.6196 32.9968 56.0604 30.959 56.0604Z" fill="white"/>
<path d="M45.203 56.0604C43.1194 56.0604 41.6311 55.6196 40.7381 54.7381C39.8565 53.8565 39.3986 52.3968 39.3643 50.359C39.3414 49.0768 39.3242 47.7316 39.3127 46.3234C39.3013 44.9152 39.2956 43.4842 39.2956 42.0302C39.2956 40.5762 39.3013 39.1452 39.3127 37.737C39.3242 36.3174 39.3414 34.9607 39.3643 33.667C39.3871 31.8811 39.8565 30.4958 40.7724 29.5112C41.6883 28.5152 43.1594 28.0172 45.1858 28.0172C47.2008 28.0172 48.6605 28.4579 49.5649 29.3395C50.4693 30.2096 50.9559 31.6635 51.0246 33.7014C51.036 34.1021 51.0418 34.5829 51.0418 35.1439C51.0418 35.6934 51.036 36.2429 51.0246 36.7925C51.0131 37.3306 51.0017 37.8057 50.9902 38.2178H47.2809C47.2924 37.7141 47.2981 37.1588 47.2981 36.5521C47.3095 35.9453 47.3153 35.3385 47.3153 34.7317C47.3153 34.1135 47.3095 33.5525 47.2981 33.0488C47.2866 32.3733 47.1035 31.8753 46.7486 31.5548C46.4051 31.2342 45.8842 31.0739 45.1858 31.0739C44.4875 31.0739 43.9666 31.2342 43.6231 31.5548C43.2796 31.8753 43.0965 32.3733 43.0736 33.0488C43.0278 34.5028 42.9934 35.9854 42.9705 37.4966C42.9591 38.9963 42.9534 40.5075 42.9534 42.0302C42.9534 43.5528 42.9591 45.0698 42.9705 46.581C42.9934 48.0922 43.0278 49.569 43.0736 51.0116C43.0965 51.687 43.2796 52.1908 43.6231 52.5228C43.978 52.8433 44.5046 53.0036 45.203 53.0036C45.9472 53.0036 46.5024 52.8433 46.8688 52.5228C47.2351 52.1908 47.424 51.687 47.4355 51.0116C47.4469 50.4964 47.4526 49.924 47.4526 49.2943C47.4641 48.6532 47.4641 48.0178 47.4526 47.3881C47.4412 46.7584 47.4297 46.186 47.4183 45.6708H51.1448C51.1677 46.4264 51.1791 47.2107 51.1791 48.0235C51.1906 48.8249 51.1849 49.6034 51.162 50.359C51.0933 52.3968 50.5953 53.8565 49.6679 54.7381C48.7521 55.6196 47.2637 56.0604 45.203 56.0604Z" fill="white"/>
<path d="M53.9241 55.7684V28.2919H59.3335C61.3828 28.2919 62.8654 28.7213 63.7813 29.5799C64.7086 30.4385 65.2066 31.8639 65.2753 33.8559C65.3097 34.6917 65.3269 35.4587 65.3269 36.1571C65.3383 36.844 65.3383 37.5252 65.3269 38.2007C65.3269 38.8647 65.3097 39.5688 65.2753 40.3129C65.241 41.6066 65.0177 42.6599 64.6056 43.4727C64.2049 44.2741 63.581 44.8694 62.7338 45.2587L65.739 55.7684H61.7893L59.2305 45.8769H57.6334V55.7684H53.9241ZM57.6334 42.5969H59.3164C60.0605 42.5969 60.6101 42.4252 60.965 42.0817C61.3313 41.7268 61.5317 41.2002 61.566 40.5018C61.6004 39.7691 61.6233 39.0192 61.6347 38.2522C61.6461 37.4737 61.6461 36.7009 61.6347 35.9338C61.6233 35.1553 61.6004 34.3997 61.566 33.667C61.5317 32.9687 61.337 32.4478 60.9821 32.1043C60.6272 31.7608 60.0777 31.5891 59.3335 31.5891H57.6334V42.5969Z" fill="white"/>
<path d="M68.0783 55.7684V28.2919H77.8839V31.5891H71.7876V40.2099H77.5405V43.507H71.7876V52.4713H77.8839V55.7684H68.0783Z" fill="white"/>
<path d="M80.2535 55.7684V28.2919H90.0592V31.5891H83.9628V40.2099H89.7157V43.507H83.9628V52.4713H90.0592V55.7684H80.2535Z" fill="white"/>
<path d="M92.4288 55.7684V28.2919H98.0958L99.8818 37.0157L101.994 52.4713H102.835L102.149 39.0421L101.874 28.2919H105.48V55.7684H99.5555L97.6665 46.3406L95.9835 31.5719H95.0905L95.7259 45.3617L96.0179 55.7684H92.4288Z" fill="white"/>
</g>
</g>
</svg>
